<mxfile host="app.diagrams.net" modified="2023-08-12T14:54:25.381Z" agent="Mozilla/5.0 (Windows NT 10.0; Win64; x64) AppleWebKit/537.36 (KHTML, like Gecko) Chrome/115.0.0.0 Safari/537.36" version="21.6.8" etag="UFgWj1hUguBQWPPdQiwy" type="github">
  <diagram name="Page-1" id="w2B1URTrW1b35p2QZssv">
    <mxGraphModel>
      <root>
        <mxCell id="0" />
        <mxCell id="1" parent="0" />
      </root>
    </mxGraphModel>
  </diagram>
</mxfile>
